<?xml version="1.0" standalone="no"?>
<!DOCTYPE svg PUBLIC "-//W3C//DTD SVG 1.1//EN" "http://www.w3.org/Graphics/SVG/1.1/DTD/svg11.dtd">
<svg xmlns="http://www.w3.org/2000/svg">
<defs >
<font id="STIXTwoText" horiz-adv-x="557" ><font-face
    font-family="STIX Two Text Medium"
    units-per-em="1000"
    panose-1="0 0 0 0 0 0 0 0 0 0"
    ascent="762"
    descent="-238"
    alphabetic="0" />
<glyph unicode=" " horiz-adv-x="235" />
<glyph unicode="!" horiz-adv-x="297" d="M168 177H126L90 538Q89 559 87 575T85 603Q85 631 98 650T148 669Q182 669 196 650T210 601Q210 588 210 572T207 538L168 177ZM147 -8Q115 -8 99 9T82 54Q82 82 98 101T147 120Q179 120 196 101T212 53Q212 26 196 9T147 -8Z" />
<glyph unicode="&quot;" horiz-adv-x="338" d="M247 504H202V706H299V679L247 504ZM98 504H53V706H149V679L98 504Z" />
<glyph unicode="#" horiz-adv-x="573" d="M165 30H107L202 623H260L165 30ZM524 207H27V257H524V207ZM372 30H313L404 622H462L372 30ZM545 390H51V441H545V390Z" />
<glyph unicode="$" horiz-adv-x="495" d="M231 -7Q189 -7 156 -2T94 13T34 40V197H69Q87 107 125 72T222 36Q296 36 330 61T364 139Q364 185 335 214T246 270Q168 307 122 339T56 406T36 486Q36 558 92 599T245 640Q281 640 315 633T380 615T433 588V453H399Q382
531 344 565T247 600Q189 600 158 580T127 514Q127 486 140 466T185 427T271 381Q306 364 340 345T402 302T448 245T465 169Q465 110 436 71T354 12T231 -7ZM269 -93H223V705H269V-93Z" />
<glyph unicode="%" horiz-adv-x="716" d="M289 514Q289 560 274 584T229 608Q200 608 177 586T140 524T126 433Q126 387 139 366T179 344Q210 344 235 367T274 429T289 514ZM673 179Q673 123 652 78T593 6T505 -20Q451 -20 420 13T389 111Q389 168 411 213T472
284T561 310Q616 310 644 277T673 179ZM547 667H600L195 -21H137L495 580H490Q464 563 441 556T388 548Q371 548 358 551T322 564L320 562Q324 550 325 537T327 508Q327 452 306 406T246 334T158 307Q105 307 74 340T43 438Q43 495 65 540T127 611T213 638Q243
638 264 629T303 609T343 588T399 579Q423 579 443 586T487 612T547 667ZM635 187Q635 280 575 280Q545 280 522 258T485 196T471 106Q471 60 484 38T525 16Q556 16 581 39T620 101T635 187Z" />
<glyph unicode="&amp;" horiz-adv-x="736" d="M563 -15Q530 -15 504 -5T452 29T388 92Q366 117 337 157T277 248T216 352Q185 409 170 450T154 529Q154 589 199 625T318 662Q379 662 420 632T462 541Q462 487 426 448T297 370L282 400Q323 418 346 440T380 489T391
545Q391 581 373 605T319 630Q283 630 263 610T243 555Q243 526 256 487T293 404T344 316T402 231T458 162Q499 116 529 92T602 67Q633 67 656 80T700 123L721 111Q708 73 684 45T629 1T563 -15ZM202 -15Q116 -15 70 25T24 142Q24 189 44 227T107 300T221 371L235
339Q183 308 159 267T134 174Q134 135 147 108T185 67T248 52Q283 52 314 64T385 113L410 86Q373 48 342 26T277 -5T202 -15ZM462 138L436 161Q468 209 486 240T513 294T522 337Q522 358 510 367T463 376V409H679V376Q642 376 623 365T586 324Q566 290 549 263T512
208T462 138Z" />
<glyph unicode="&apos;" horiz-adv-x="189" d="M98 505H53V706H149V679L98 505Z" />
<glyph unicode="(" horiz-adv-x="362" d="M333 -155L313 -186Q189 -124 116 -8T43 274Q43 438 116 553T313 730L332 701Q229 628 185 526T140 274Q140 123 185 20T333 -155Z" />
<glyph unicode=")" horiz-adv-x="362" d="M49 -186L29 -155Q133 -83 177 20T222 274Q222 423 178 525T30 701L49 730Q173 669 246 554T319 274Q319 109 246 -7T49 -186Z" />
<glyph unicode="*" horiz-adv-x="415" d="M209 312Q194 312 181 321T168 351Q168 371 173 389T184 428T189 474L188 475Q166 463 147 441T111 402T77 385Q61 386 49 399T36 427Q36 446 51 456T88 473T134 485T174 502V505Q156 517 133 522T88 531T51 545T37 574Q37
590 48 604T76 619Q92 619 110 603T148 566T188 530L189 531Q189 559 184 579T173 616T168 653Q168 674 181 683T209 692Q224 692 236 683T248 654Q248 635 242 617T231 579T226 530L227 529Q248 545 267 566T304 603T338 619Q353 619 365 607T378 576Q378 557
363 547T325 532T279 522T240 505V503Q262 491 285 485T330 472T364 455T378 426Q378 411 366 398T338 384Q322 384 304 400T267 439T227 476L225 474Q225 449 230 428T242 389T248 350Q248 331 236 322T209 312Z" />
<glyph unicode="+" horiz-adv-x="730" d="M405 -45H325V220H63V296H325V561H405V296H667V220H405V-45Z" />
<glyph unicode="," horiz-adv-x="255" d="M72 -136L58 -109Q78 -100 97 -88T128 -52T141 12Q126 7 113 7Q85 7 71 23T56 64Q56 89 73 108T121 127Q145 127 163 117T191 86T202 34Q202 -9 188 -38T152 -87T109 -117T72 -136Z" />
<glyph unicode="-" horiz-adv-x="315" d="M272 215H43V286H272V215Z" />
<glyph unicode="." horiz-adv-x="255" d="M126 -9Q94 -9 78 9T61 56Q61 84 78 103T127 123Q159 123 176 104T193 55Q193 29 176 10T126 -9Z" />
<glyph unicode="/" horiz-adv-x="396" d="M101 -89H36L297 709H361L101 -89Z" />
<glyph unicode="0" horiz-adv-x="495" d="M247 -11Q187 -11 145 15T77 86T39 192T27 320Q27 417 52 489T127 602T249 642Q315 642 364 604T440 494T468 317Q468 251 456 192T417 88T349 16T247 -11ZM247 28Q298 28 326 98T354 311Q354 461 327 533T246 605Q195
605 167 534T139 315Q139 172 167 100T247 28Z" />
<glyph unicode="1" horiz-adv-x="495" d="M437 0H69V33Q140 33 169 48T199 100V512Q199 538 192 549T166 561Q156 561 138 559T99 554T63 546V584L265 639H306V100Q306 63 337 48T437 33V0Z" />
<glyph unicode="2" horiz-adv-x="495" d="M432 0H35V44L180 190Q228 240 260 281T309 364T325 459Q325 512 295 544T210 576Q163 576 130 556T69 481L39 493Q63 566 115 606T243 646Q300 646 343 625T412 565T437 474Q437 428 418 388T362 305T269 209L142 93V87L210
91H341Q381 91 397 109T430 173H464L432 0Z" />
<glyph unicode="3" horiz-adv-x="495" d="M168 -14Q123 -14 98 -6T62 16T52 45Q52 63 63 78T95 94Q112 94 129 86T163 66T199 47T236 38Q266 38 291 49T331 89T347 166Q347 211 325 243T263 293T173 311H154V357H174Q207 357 237 373T287 418T307 487Q307 529
281 552T209 576Q165 576 136 556T80 498L54 513Q83 578 130 612T241 647Q321 647 365 608T410 511Q410 457 379 426T297 367V362Q341 348 375 325T429 269T448 192Q448 124 410 78T308 9T168 -14Z" />
<glyph unicode="4" horiz-adv-x="495" d="M386 0H279V147H14V224L307 645H386V231H482V147H386V0ZM77 235V231H279V522H276L77 235Z" />
<glyph unicode="5" horiz-adv-x="495" d="M166 -14Q104 -14 76 0T47 44Q47 63 58 78T92 94Q108 94 123 86T154 66T189 47T232 38Q268 38 296 51T342 95T359 177Q359 228 339 259T282 307T199 330T99 337L85 356L150 630H436L420 540H175L150 432Q196 429 240 422T322
400T389 362T434 303T451 219Q451 159 429 115T369 43T279 0T166 -14Z" />
<glyph unicode="6" horiz-adv-x="495" d="M260 -13Q183 -13 134 23T62 120T39 255Q39 347 68 418T150 539T273 616T426 646L429 611Q359 601 301 568T204 480T152 354L160 353Q190 383 218 398T286 414Q366 414 414 359T462 206Q462 100 410 44T260 -13ZM263 26Q308
26 332 64T356 195Q356 261 329 305T246 350Q220 350 198 339T162 303T148 236Q148 175 160 128T198 53T263 26Z" />
<glyph unicode="7" horiz-adv-x="494" d="M231 -8H137L383 536H163Q135 536 120 531T96 510T72 461L38 464L78 630H466V586L231 -8Z" />
<glyph unicode="8" horiz-adv-x="495" d="M243 -13Q184 -13 138 4T66 56T39 142Q39 182 54 209T101 260T178 314V327L218 304Q192 279 172 257T141 210T129 150Q129 85 161 54T247 22Q275 22 299 33T339 66T354 121Q354 154 341 180T293 235T196 306L191 308Q134
346 104 375T64 434T53 497Q53 544 78 577T148 629T251 648Q302 648 342 630T406 581T430 511Q430 475 418 449T377 402T302 355V342L257 367Q305 397 324 430T343 512Q343 560 318 585T250 611Q204 611 177 586T149 517Q149 473 180 441T281 366L288 360Q352 322
388 291T440 228T456 153Q456 99 429 62T353 6T243 -13Z" />
<glyph unicode="9" horiz-adv-x="495" d="M78 -13L76 21Q144 29 201 59T296 144T346 280L339 281Q307 252 279 237T212 221Q132 221 84 277T35 432Q35 533 89 589T239 646Q317 646 364 609T434 510T456 374Q456 276 428 204T350 83T230 12T78 -13ZM251 286Q290
286 318 311T347 398Q347 460 336 507T301 581T236 608Q193 608 167 570T141 438Q141 370 168 328T251 286Z" />
<glyph unicode=":" horiz-adv-x="255" d="M136 -9Q104 -9 88 9T71 56Q71 84 88 103T137 123Q169 123 186 104T203 55Q203 29 186 10T136 -9ZM136 349Q104 349 88 367T71 414Q71 442 88 461T137 481Q169 481 186 462T203 413Q203 387 186 368T136 349Z" />
<glyph unicode=";" horiz-adv-x="255" d="M82 -136L68 -109Q88 -100 107 -88T138 -52T151 12Q136 7 123 7Q95 7 81 23T66 64Q66 89 83 108T131 127Q155 127 173 117T201 86T212 34Q212 -9 198 -38T162 -87T119 -117T82 -136ZM136 349Q104 349 88 367T71 414Q71
442 88 461T137 481Q169 481 186 462T203 413Q203 387 186 368T136 349Z" />
<glyph unicode="&lt;" horiz-adv-x="711" d="M654 42V-31L68 251V269L654 553V478L210 260L654 42Z" />
<glyph unicode="=" horiz-adv-x="730" d="M667 338H63V414H667V338ZM667 101H63V176H667V101Z" />
<glyph unicode="&gt;" horiz-adv-x="711" d="M657 251L70 -31V42L515 260L70 478V553L657 269V251Z" />
<glyph unicode="?" horiz-adv-x="427" d="M233 177H186V204Q186 243 196 272T223 326T254 377T280 437T290 517Q290 576 264 603T194 630Q154 630 135 615T115 576Q115 560 120 551T131 533T136 504Q136 479 121 468T87 457Q60 457 45 475T29 531Q29 572 51 603T115
652T209 670Q258 670 301 655T372 607T399 520Q399 474 382 438T341 371T292 312T250 255T233 193V177ZM211 -8Q179 -8 163 8T147 53Q147 80 163 98T212 117Q241 117 258 99T274 52Q274 25 258 9T211 -8Z" />
<glyph unicode="@" horiz-adv-x="915" d="M477 -186Q343 -186 250 -137T107 2T58 219Q58 310 88 384T173 513T305 596T473 626Q595 626 680 580T811 453T857 266Q857 175 832 114T761 22T653 -9Q601 -9 579 12T550 82H545Q522 39 485 14T401 -12Q363 -12 327 6T269
69T246 193Q246 242 258 287T295 368T358 424T449 445Q486 445 509 431T549 396H557L587 439H638L634 108Q634 87 641 71T671 55Q730 55 757 109T784 266Q784 362 745 432T636 539T473 577Q373 577 298 536T180 417T137 226Q137 113 178 33T298 -89T485 -132Q541
-132 597 -122T717 -82L732 -115Q665 -154 604 -170T477 -186ZM435 56Q477 56 502 82T537 137L539 320Q534 354 512 380T455 406Q414 406 390 376T357 302T347 212Q347 149 359 115T392 68T435 56Z" />
<glyph unicode="A" horiz-adv-x="728" d="M218 0H3V34Q30 34 47 42T79 76T115 154L329 662H390L620 125Q642 76 663 55T722 34V0H437V34Q451 34 466 36T492 45T503 70Q503 81 499 97T485 136L446 227L439 249L331 530H328L215 249L207 227L163 121Q159 109 155
96T151 69Q151 47 167 41T218 34V0ZM463 216H191L207 260H447L463 216Z" />
<glyph unicode="B" horiz-adv-x="635" d="M358 0H36V34Q76 34 96 41T124 68T131 129V533Q131 573 124 592T97 617T36 623V657H326Q416 657 469 639T546 586T570 503Q570 436 530 402T427 351V347Q470 340 509 322T575 269T602 177Q602 91 538 46T358 0ZM308 41Q340
41 370 45T424 62T463 102T477 176Q477 234 453 265T390 307T308 319H241V44Q258 43 274 42T308 41ZM241 610V365H303Q389 365 420 394T452 491Q452 550 418 581T297 613Q284 613 270 613T241 610Z" />
<glyph unicode="C" horiz-adv-x="675" d="M363 -11Q258 -11 188 32T83 152T48 326Q48 437 90 513T208 629T380 669Q433 669 464 661T514 643T546 634Q560 634 566 644T579 669H613V435H575Q558 531 508 577T380 623Q277 623 223 549T169 341Q169 243 197 182T276
91T398 62Q469 62 519 88T612 160L638 137Q609 95 572 62T484 9T363 -11Z" />
<glyph unicode="D" horiz-adv-x="741" d="M323 0H35V34Q78 34 98 40T125 67T131 128V539Q131 576 123 593T93 616T35 622V657H314Q391 657 459 642T580 590T663 491T693 335Q693 245 666 181T589 77T472 19T323 0ZM296 44Q382 44 443 67T538 152T571 325Q571 464
502 537T287 611Q276 611 266 611T241 609V46Q255 45 269 45T296 44Z" />
<glyph unicode="E" horiz-adv-x="637" d="M582 0H36V34Q74 34 94 39T123 63T131 121V531Q131 569 124 589T97 616T36 623V657H572L578 488H540Q533 536 520 561T475 596T383 606H241V360H349Q397 360 420 367T452 394T460 455H497V223H460Q460 265 452 284T421
310T349 316H241V49H367Q422 49 456 55T511 76T544 118T572 189H609L582 0Z" />
<glyph unicode="F" horiz-adv-x="597" d="M345 0H36V34Q76 34 96 40T123 64T131 120V540Q131 575 123 592T93 616T36 623V657H577L583 487H545Q538 523 531 546T508 582T465 600T387 606H241V359H346Q389 359 413 366T446 395T455 456H493V223H455Q455 264 446
283T413 309T346 315H241V114Q241 80 250 63T283 40T345 34V0Z" />
<glyph unicode="G" horiz-adv-x="726" d="M373 -11Q210 -11 129 77T48 326Q48 440 91 516T208 630T378 669Q432 669 464 660T515 642T546 633Q560 633 566 643T581 669H615V436H576Q558 536 508 579T378 623Q276 623 223 548T169 340Q169 189 224 114T382 39Q428
39 459 51T521 87V188Q521 224 515 242T490 267T433 274V310H691V274Q649 274 637 260T624 198V57Q570 26 513 8T373 -11Z" />
<glyph unicode="H" horiz-adv-x="798" d="M337 0H36V34Q80 34 100 40T125 69T131 135V521Q131 560 127 582T102 614T36 623V657H338V623Q292 623 272 614T246 583T241 521V358H557V521Q557 560 552 582T527 614T461 623V657H764V623Q717 623 697 614T672 583T667
521V135Q667 92 672 70T698 41T764 34V0H461V34Q506 34 526 41T552 70T557 135V314H241V135Q241 91 246 70T272 41T337 34V0Z" />
<glyph unicode="I" horiz-adv-x="372" d="M336 0H34V34Q79 34 99 41T125 70T131 135V521Q131 560 126 582T101 614T34 623V657H337V623Q291 623 271 614T246 583T241 521V135Q241 92 246 71T272 42T336 34V0Z" />
<glyph unicode="J" horiz-adv-x="419" d="M126 -12Q93 -12 64 -4T18 22T0 71Q0 96 13 110T49 125Q69 125 80 115T99 91T114 61T129 36T151 26Q180 26 189 49T198 126V521Q198 560 193 582T167 614T98 623V657H401V623Q359 623 339 614T314 583T308 521V156Q308
104 294 71T254 20T195 -5T126 -12Z" />
<glyph unicode="K" horiz-adv-x="729" d="M336 0H34V34Q80 34 100 41T125 69T131 135V521Q131 560 126 582T101 614T34 623V657H337V623Q291 623 271 614T246 583T241 520V337H246L411 495Q444 527 460 548T477 591Q477 608 469 615T439 623H423V657H676V623Q648
622 629 615T590 594T544 555L337 363L621 77Q646 54 667 44T724 34V0H416V34H434Q454 34 463 39T473 55Q473 71 460 90T416 141T335 221L249 308H241V135Q241 93 246 72T272 42T336 34V0Z" />
<glyph unicode="L" horiz-adv-x="605" d="M559 0H39V34Q80 34 99 41T125 68T131 127V526Q131 565 126 586T100 615T40 623V657H339V623Q298 623 277 615T249 585T241 525V103Q241 69 257 59T317 48H368Q415 48 445 55T493 80T523 127T550 200H588L559 0Z" />
<glyph unicode="M" horiz-adv-x="927" d="M268 0H27V34Q68 34 88 41T114 72T121 148V531Q121 569 115 588T89 615T29 623V657H258L461 167H467L669 657H882V623Q847 623 828 616T802 589T795 532V121Q795 86 802 67T829 41T883 34V0H599V34Q638 34 657 41T682
67T688 121V541H683L455 0H414L183 540H178V148Q178 97 185 73T211 41T268 34V0Z" />
<glyph unicode="N" horiz-adv-x="759" d="M644 -8H585L181 521H150L128 563Q110 589 96 601T66 618T27 623V657H220L584 178H589V494Q589 538 583 566T558 609T494 623V657H735V623Q695 623 676 609T650 565T644 490V-8ZM267 0H27V34Q67 34 87 48T114 94T121 176V592H176V153Q176
103 183 78T210 43T267 34V0Z" />
<glyph unicode="O" horiz-adv-x="740" d="M371 -13Q270 -13 198 28T87 145T48 329Q48 432 87 508T198 627T371 669Q472 669 544 628T654 513T692 338Q692 232 654 153T543 31T371 -13ZM372 33Q472 33 521 108T571 335Q571 426 546 490T475 589T368 624Q276 624
223 548T170 335Q170 194 220 114T372 33Z" />
<glyph unicode="P" horiz-adv-x="594" d="M346 0H41V34Q81 34 100 41T125 68T131 131V550Q131 596 112 609T44 623V657H316Q365 657 410 650T491 624T547 573T568 488Q568 429 546 390T487 326T402 292T304 282Q288 282 270 284T241 291V127Q241 86 249 66T279
40T346 34V0ZM295 328Q347 328 381 340T434 385T452 476Q452 544 415 579T298 615Q284 615 271 614T241 611V332Q250 331 264 330T295 328Z" />
<glyph unicode="Q" horiz-adv-x="740" d="M446 -2L353 -12Q258 -8 190 33T85 150T48 329Q48 432 87 508T198 627T371 669Q472 669 544 628T654 513T692 339Q692 247 663 175T578 58T446 -2ZM711 -174H662Q578 -174 520 -163T423 -125T359 -52L328 3L462 17V-2Q498
-52 532 -82T608 -124T711 -137V-174ZM372 33Q472 33 521 108T571 335Q571 426 546 490T475 589T368 624Q276 624 223 548T170 335Q170 194 220 114T372 33Z" />
<glyph unicode="R" horiz-adv-x="681" d="M340 0H40V34Q78 34 97 40T124 66T131 128V548Q131 576 125 592T100 616T40 623V657H312Q385 657 444 642T537 592T571 492Q571 436 547 402T485 348T405 318V314Q422 304 442 280T496 210T584 85Q607 52 630 43T688 34V0H503Q464
61 439 102T395 170T363 219T334 264Q319 287 307 292T267 298H241V127Q241 87 248 67T276 40T340 34V0ZM241 340L279 339Q333 342 371 356T431 401T453 487Q453 546 418 580T306 615Q290 615 274 615T241 612V340Z" />
<glyph unicode="S" horiz-adv-x="512" d="M78 -14H43L34 202H71Q88 134 111 98T167 49T247 36Q283 36 310 46T354 78T370 136Q370 180 347 208T287 258T210 302Q168 325 130 350T69 413T45 505Q45 559 71 595T143 650T245 669Q288 669 313 662T353 648T380 640Q391
640 399 646T411 667H441L447 464H412Q391 550 356 588T250 626Q198 626 171 604T143 538Q143 501 164 475T219 429T292 388Q325 370 358 351T419 308T463 250T480 171Q480 112 452 71T375 9T262 -12Q211 -12 181 -5T133 10T105 18Q94 18 87 9T78 -14Z" />
<glyph unicode="T" horiz-adv-x="621" d="M464 0H157V34Q200 34 220 40T248 68T255 135V609H197Q142 609 115 597T75 556T52 471H15L26 657H597L605 471H568Q557 526 545 555T506 597T423 609H366V135Q366 90 372 69T400 41T464 34V0Z" />
<glyph unicode="U" horiz-adv-x="767" d="M387 -13Q246 -13 183 48T119 249V535Q119 570 112 589T84 615T23 623V657H326V623Q285 623 264 616T236 588T229 530V255Q229 190 245 146T302 80T412 57Q508 57 551 102T595 250V495Q595 548 589 575T563 613T501 623V657H751V623Q708
623 688 613T662 577T656 498V262Q656 125 594 56T387 -13Z" />
<glyph unicode="V" horiz-adv-x="689" d="M375 -5H323L91 533Q76 566 63 585T32 614T-15 623V657H274V623Q259 623 244 621T217 611T206 584Q206 563 222 525L340 242L379 139H385L420 239L540 542Q544 551 547 563T551 589Q551 609 535 616T485 623V657H700V623Q679
623 665 619T638 600T612 558T579 485L375 -5Z" />
<glyph unicode="W" horiz-adv-x="976" d="M698 -7H650L497 401L483 434L450 528Q434 571 422 591T393 617T347 623V657H624V623Q549 623 549 587Q549 576 554 561T565 530L667 264L697 171H703L813 497Q817 508 820 522T827 551T830 578Q830 605 813 614T762 623V657H974V623Q940
622 923 607T891 554L698 -7ZM352 -7H307L98 517Q75 578 53 599T-7 623V657H267V623Q230 623 216 615T202 591Q202 572 215 538L330 251L359 169H365L481 467L528 379H501L352 -7Z" />
<glyph unicode="X" horiz-adv-x="675" d="M673 0H372V33H381Q412 33 424 39T436 61Q436 77 429 94T402 143L343 236L308 297L290 315L134 543Q111 574 97 591T64 616T11 623V657H308V623H297Q269 623 257 617T245 593Q245 580 254 563T277 526T301 486L362 384L379
367L569 94Q594 59 615 47T673 33V0ZM231 0H1V33Q26 34 42 40T75 63T113 107L291 336L327 286H311L195 124Q185 112 175 96T164 63Q164 49 177 41T231 33V0ZM522 532L378 347L343 394H358L459 537Q471 556 478 570T486 599Q486 611 474 617T425 623V657H660V623Q629
621 609 614T569 588T522 532Z" />
<glyph unicode="Y" horiz-adv-x="656" d="M489 0H176V34Q220 34 241 40T269 67T276 133V268L146 480Q116 530 95 558T57 601T26 619T-7 623V657H276V623Q234 623 222 617T210 600Q210 581 227 555L315 408L357 329H363L492 560Q497 567 500 577T504 597Q504 610
492 616T442 623V657H663V623Q634 621 614 614T576 587T534 528L386 271V133Q386 89 394 68T425 41T489 34V0Z" />
<glyph unicode="Z" horiz-adv-x="602" d="M547 0H28V37L426 599V606H255Q206 606 174 597T124 560T96 476H57L69 657H569V620L174 55V49H362Q421 49 453 62T503 107T536 193H574L547 0Z" />
<glyph unicode="[" horiz-adv-x="362" d="M315 -186H94V732H315V696H185V-150H315V-186Z" />
<glyph unicode="\" horiz-adv-x="394" d="M359 -89H295L35 709H99L359 -89Z" />
<glyph unicode="]" horiz-adv-x="362" d="M268 -186H46V-150H176V696H46V732H268V-186Z" />
<glyph unicode="^" horiz-adv-x="480" d="M91 309H32L212 673H268L449 309H389L241 612H238L91 309Z" />
<glyph unicode="_" horiz-adv-x="512" d="M512 -138H0V-77H512V-138Z" />
<glyph unicode="`" horiz-adv-x="222" d="M195 521H152L26 652V674H125L195 521Z" />
<glyph unicode="a" horiz-adv-x="495" d="M158 -8Q101 -8 69 22T36 104Q36 145 54 173T103 220T168 251T238 273T299 290V336Q299 400 280 425T218 450Q179 450 168 434T156 372Q156 346 142 334T105 321Q88 321 73 334T57 375Q57 403 79 428T141 469T237 485Q323
485 362 448T401 331V107Q401 76 408 67T431 58Q445 58 456 65T479 84L496 66Q471 30 446 12T377 -7Q336 -7 323 12T305 70L299 85V255Q256 244 221 230T164 192T142 130Q142 93 159 73T206 52Q230 52 255 64T308 101L315 59H302Q279 39 259 24T215 0T158 -8Z"
/>
<glyph unicode="b" horiz-adv-x="537" d="M145 706H179V401H183Q209 432 247 458T336 485Q387 485 424 458T482 381T503 263Q503 172 471 111T383 20T252 -10Q185 -10 141 5T77 30V587Q77 621 70 630T34 640Q21 640 13 639T5 638V671L145 706ZM179 352V81Q192
64 214 49T273 34Q317 34 343 60T380 132T392 233Q392 282 383 322T350 385T286 409Q250 409 222 389T179 352Z" />
<glyph unicode="c" horiz-adv-x="461" d="M422 155L443 140Q424 99 399 65T336 10T240 -10Q176 -10 130 19T58 101T32 226Q32 304 59 362T138 452T267 485Q343 485 386 454T429 378Q429 353 415 340T378 327Q354 327 342 339T322 368T308 403T288 433T247 445Q191
445 162 401T132 273Q132 184 166 130T278 75Q328 75 359 94T422 155Z" />
<glyph unicode="d" horiz-adv-x="556" d="M204 -9Q147 -9 109 21T52 104T33 220Q33 306 63 365T146 454T262 485Q285 485 309 480T356 462H360V587Q360 620 353 630T316 640Q309 640 299 639T289 638V671L425 706H462V109Q462 71 473 60T512 48H533V16L389 -5H362V62H358Q330
37 292 14T204 -9ZM256 67Q289 67 311 76T360 104V361Q353 390 331 414T264 439Q208 439 175 395T141 256Q141 156 170 112T256 67Z" />
<glyph unicode="e" horiz-adv-x="480" d="M251 -10Q187 -10 138 18T61 101T33 237Q33 321 63 376T143 458T254 485Q340 485 392 428T447 263H125L124 303H334Q333 342 323 374T293 425T239 444Q185 444 160 400T134 271Q134 203 154 160T208 96T284 75Q324 75
350 85T395 112T430 150L451 134Q437 106 420 80T381 33T327 2T251 -10Z" />
<glyph unicode="f" horiz-adv-x="324" d="M304 0H14V32Q52 32 69 38T93 64T99 124V440Q99 495 101 530T112 592T139 643Q163 678 196 696T283 714Q318 714 344 707T387 682T403 639Q403 614 389 603T357 592Q336 592 324 604T300 635Q289 653 278 663T250 673Q222
673 212 648T201 561V124Q201 84 209 65T239 39T304 32V0ZM324 420H22V468H324V420Z" />
<glyph unicode="g" horiz-adv-x="499" d="M193 -235Q127 -235 89 -220T36 -180T20 -127Q20 -100 40 -75T99 -13V-1L134 -10Q119 -35 112 -55T105 -94Q105 -134 141 -154T254 -175Q312 -175 346 -162T396 -128T411 -88Q411 -62 395 -49T355 -29T302 -22T246 -20Q202
-19 178 -19T143 -19T124 -18L107 -12Q94 -8 79 2T52 28T40 65Q40 88 51 108T81 146T123 183V195L157 176Q151 168 144 156T133 131T129 108Q129 94 138 86T174 75T251 70Q321 70 372 63T451 30T479 -52Q479 -103 453 -138T384 -194T291 -225T193 -235ZM241 154Q214
154 191 159T145 172L130 183Q107 196 89 213T59 257T47 321Q47 373 72 409T141 465T237 484Q266 484 295 479T350 464T394 440V408Q404 393 415 369T427 307Q427 257 403 223T336 171T241 154ZM242 193Q277 193 300 218T323 313Q323 375 299 409T231 444Q195 444
172 416T149 325Q149 260 173 227T242 193ZM488 467V410L379 412L345 461L488 467Z" />
<glyph unicode="h" horiz-adv-x="597" d="M577 0H332V32Q366 32 380 39T398 61T402 101V263Q402 303 397 337T374 391T315 411Q285 411 256 396T186 343L187 402H203Q248 446 284 465T363 485Q404 485 431 470T475 428T497 368T504 298V104Q504 64 517 48T577
32V0ZM273 0H27V32Q67 32 82 43T97 96V602Q97 628 83 635T49 642Q37 642 29 641T20 640V672L161 706H199V100Q199 75 203 60T223 39T273 32V0Z" />
<glyph unicode="i" horiz-adv-x="299" d="M275 0H28V32Q61 32 76 38T95 60T99 104V375Q99 408 88 415T53 423Q43 423 36 422T28 421V454L162 482H201V105Q201 76 205 60T226 38T275 32V0ZM150 555Q122 555 104 573T86 619Q86 646 103 664T150 682Q181 682 198
664T215 619Q215 592 198 574T150 555Z" />
<glyph unicode="j" horiz-adv-x="278" d="M15 -235Q-37 -235 -69 -215T-101 -156Q-101 -135 -88 -123T-54 -110Q-33 -110 -21 -121T0 -148T19 -175T48 -187Q83 -187 90 -149T97 -30V369Q97 402 89 412T53 423Q41 423 32 422T23 420V454L159 482H199V-2Q199 -82
178 -133T115 -210T15 -235ZM147 555Q118 555 100 573T81 619Q81 646 98 664T147 682Q177 682 195 664T213 619Q213 592 195 574T147 555Z" />
<glyph unicode="k" horiz-adv-x="564" d="M273 0H26V32Q72 32 84 45T97 99V596Q97 625 88 634T56 643Q46 643 34 642T22 641V672L160 706H199V265H206L328 390Q331 393 338 401T345 421Q345 431 335 435T295 440V473H525V440Q503 440 485 436T446 419T399 384T329
326L283 288L467 84Q489 60 503 49T530 35T563 32V0H329V32Q351 32 358 35T366 45Q366 51 363 57T355 69L206 239H199V95Q199 56 213 44T273 32V0Z" />
<glyph unicode="l" horiz-adv-x="297" d="M277 0H27V32Q60 32 75 38T93 61T97 104V600Q97 631 85 637T53 643Q40 643 31 642T22 641V672L161 706H199V105Q199 76 204 61T225 39T277 32V0Z" />
<glyph unicode="m" horiz-adv-x="882" d="M571 0H322V32Q356 32 371 39T390 64T395 115V299Q395 366 374 388T317 411Q291 411 269 401T227 376T194 346L186 401H203Q241 435 278 460T367 485Q419 485 449 457T492 382Q494 375 495 368T497 352V115Q497 83 501
65T522 40T571 32V0ZM275 0H30V32Q62 32 76 38T95 59T99 104V377Q99 405 89 413T58 422Q46 422 39 421T31 420V453L165 482H198V389L201 365V102Q201 74 206 59T228 38T275 32V0ZM861 0H619V32Q652 32 666 40T684 67T688 115V295Q688 342 678 366T649 401T606 411Q574
411 543 390T488 347L475 399H491Q531 440 570 462T653 485Q716 485 753 445T790 311V115Q790 85 794 67T813 40T861 32V0Z" />
<glyph unicode="n" horiz-adv-x="598" d="M578 0H332V32Q366 32 381 38T400 60T404 104V278Q404 333 392 362T360 401T315 411Q288 411 267 401T228 376T193 347L187 401H203Q243 437 279 461T362 485Q433 485 469 439T506 302V104Q506 77 510 61T530 39T578 32V0ZM276
0H30V32Q63 32 77 38T95 61T99 104V378Q99 405 89 413T58 422Q45 422 38 421T31 420V453L166 482H199V389L202 366V104Q202 77 206 61T225 39T276 32V0Z" />
<glyph unicode="o" horiz-adv-x="525" d="M263 -10Q154 -10 94 54T33 241Q33 313 60 368T140 454T264 485Q372 485 431 422T491 248Q491 163 463 106T384 19T263 -10ZM267 33Q305 33 330 53T368 118T380 242Q380 334 350 389T259 444Q205 444 175 395T145 253Q145
138 176 85T267 33Z" />
<glyph unicode="p" horiz-adv-x="552" d="M291 -220H19V-188Q66 -188 79 -173T92 -116V372Q92 401 86 412T54 424Q44 424 33 423T22 422V455L157 483H192V399H196Q233 440 270 462T352 485Q402 485 439 458T497 381T518 261Q518 176 489 116T409 23T299 -10Q270
-10 245 -4T198 17H194V-109Q194 -141 202 -158T231 -181T291 -187V-220ZM294 34Q343 34 375 81T407 233Q407 325 380 367T302 409Q265 409 237 390T194 352V95Q203 85 217 71T250 45T294 34Z" />
<glyph unicode="q" horiz-adv-x="539" d="M525 -220H265V-188Q306 -188 325 -181T351 -157T358 -109V61H355Q323 33 288 12T202 -9Q149 -9 111 20T53 101T33 220Q33 301 61 360T141 452T260 485Q292 485 320 477T382 448L413 481H460V-120Q460 -157 471 -172T525
-188V-220ZM256 68Q292 68 315 78T358 105V365Q346 401 323 420T262 439Q207 439 174 394T140 259Q140 205 150 162T186 93T256 68Z" />
<glyph unicode="r" horiz-adv-x="402" d="M296 0H26V32Q59 32 74 37T94 58T99 101V366Q99 393 94 407T62 421Q47 421 39 420T31 419V452L165 482H199V379H203Q229 415 248 439T286 475T332 488Q365 488 380 471T396 424Q396 391 381 376T347 361Q329 361 316 370T293
389T276 398Q260 398 240 376T201 327V106Q201 75 209 59T239 38T296 32V0Z" />
<glyph unicode="s" horiz-adv-x="409" d="M41 -9L38 168H70Q85 93 115 61T200 29Q237 29 260 44T284 92Q284 114 276 129T243 160T171 199Q126 221 97 242T54 290T39 356Q39 418 83 451T198 485Q238 485 263 475T305 456H307L324 479H350L353 323H321Q304 394
275 420T201 447Q167 447 146 431T125 385Q125 355 152 335T239 284Q284 261 316 239T365 190T382 123Q382 74 358 44T293 2T205 -11Q161 -11 136 -2T90 15H87L66 -9H41Z" />
<glyph unicode="t" horiz-adv-x="336" d="M313 97L334 77Q315 50 297 31T255 0T192 -11Q140 -11 115 19T89 122V420H32V449Q69 472 98 510T156 612H191V468H308V420H191V153Q191 99 201 79T240 58Q266 58 280 68T313 97Z" />
<glyph unicode="u" horiz-adv-x="589" d="M225 -10Q159 -10 124 30T88 171V371Q88 399 83 412T62 428T20 432V464L161 478H190V189Q190 139 201 113T231 76T274 65Q310 65 335 80T390 120V373Q390 400 383 412T359 428T308 432V464L463 478H492V119Q492 74 505
62T555 50H564V20L422 -5H395V75H390Q362 46 337 27T284 -1T225 -10Z" />
<glyph unicode="v" horiz-adv-x="496" d="M278 -6H218L68 364Q55 397 44 413T20 435T-16 441V473H218V441Q188 441 176 434T164 415Q164 405 167 396T174 375L255 167L275 106H281L303 169L386 379Q387 382 390 391T393 413Q393 430 379 435T337 441V473H517V441Q488
441 472 427T439 373L278 -6Z" />
<glyph unicode="w" horiz-adv-x="780" d="M568 -6H505L397 292L382 326L366 371Q354 402 345 417T322 436T287 441V473H508V441Q480 441 470 435T459 417Q459 408 461 398T468 376L546 167L564 110H570L590 167L667 382Q668 387 670 395T673 416Q673 430 658 435T614
441V473H796V441Q767 441 752 428T721 376L568 -6ZM280 -6H218L65 371Q53 401 43 415T19 435T-17 441V473H215V441Q186 441 175 435T164 417Q164 406 167 398T175 377L259 167L277 110H284L305 167L382 352L416 277H398L280 -6Z" />
<glyph unicode="x" horiz-adv-x="495" d="M500 0H271V32Q297 32 307 37T318 56Q318 68 310 80L252 168L227 211L211 225L99 380Q82 405 69 418T42 436T7 441V473H240V442Q194 442 194 419Q194 412 199 402T216 375T246 329L272 281L288 270L418 92Q440 62 455
47T500 32V0ZM169 0H-3V32Q23 32 39 43T81 83L211 241L243 202H228L152 95Q142 80 134 68T126 49Q126 40 135 36T169 32V0ZM403 395L288 256L258 289H272L316 350Q338 378 345 392T352 418Q352 429 343 435T311 442V473H482V441Q457 441 439 429T403 395Z" />
<glyph unicode="y" horiz-adv-x="498" d="M81 -235Q49 -235 28 -222T6 -179Q6 -155 20 -144T53 -133Q79 -133 99 -144T133 -156Q148 -156 164 -137T195 -91T219 -39T228 -2Q228 13 216 42T191 96L45 405Q38 422 25 431T-15 441V473H217V440Q184 440 172 434T160
414Q160 404 165 393T175 370L270 162L285 113H292L387 393Q389 398 390 405T391 416Q391 431 376 436T337 441V473H512V441Q482 441 468 428T443 386L280 -20Q250 -95 221 -142T158 -212T81 -235Z" />
<glyph unicode="z" horiz-adv-x="470" d="M425 0H32V34L306 425V428H186Q131 428 111 399T84 322H49L54 473H432V438L157 47V44H270Q311 44 336 54T375 90T398 163H435L425 0Z" />
<glyph unicode="{" horiz-adv-x="333" d="M286 -151V-186Q233 -186 189 -171T117 -121T90 -34Q90 -1 97 38T111 116T118 182Q118 208 107 220T76 238T34 243V294Q57 295 76 300T106 320T118 360Q118 389 111 428T97 506T90 578Q90 633 117 666T188 716T286 732V697Q258
697 234 687T195 652T180 586Q180 546 191 504T202 405Q202 370 189 344T156 300T110 274V268Q150 257 174 228T199 144Q199 104 195 76T185 20T180 -43Q180 -92 212 -121T286 -151Z" />
<glyph unicode="|" horiz-adv-x="275" d="M170 -220H105V706H170V-220Z" />
<glyph unicode="}" horiz-adv-x="333" d="M47 -186V-151Q89 -151 121 -122T153 -43Q153 -7 148 20T139 75T134 144Q134 199 158 228T223 268V274Q199 283 178 300T144 343T131 405Q131 461 142 503T153 586Q153 627 138 651T99 686T47 697V732Q100 732 144 716T216
667T243 578Q243 546 236 507T222 428T215 360Q215 334 226 320T257 301T299 294V243Q277 243 258 238T227 221T215 182Q215 155 222 117T236 39T243 -34Q243 -87 216 -121T145 -170T47 -186Z" />
<glyph unicode="~" horiz-adv-x="570" d="M86 175L30 204Q49 241 68 268T113 309T180 323Q217 323 252 310T321 283T391 269Q424 269 444 288T484 341L540 312Q522 275 503 248T457 207T391 192Q354 192 319 205T250 232T180 246Q147 246 126 227T86 175Z" />
<glyph unicode="&#xa0;" horiz-adv-x="235" />
<glyph unicode="&#xa1;" horiz-adv-x="296" d="M129 296H170L206 -64Q208 -86 209 -102T210 -130Q210 -158 198 -177T149 -196Q114 -196 100 -177T86 -128Q86 -115 87 -99T90 -64L129 296ZM84 420Q85 447 101 464T150 482Q182 482 198 465T215 419Q215 391 199
372T149 353Q118 353 101 372T84 420Z" />
<glyph unicode="&#xa2;" horiz-adv-x="495" d="M248 73Q184 73 137 102T65 185T39 309Q39 386 68 443T151 533T282 566Q355 566 398 536T441 459Q441 434 427 422T389 409Q370 409 359 417T342 440T329 469T314 496T289 514L281 513L258 527Q200 527 169 482T138
356Q138 255 180 206T293 156Q343 156 372 175T434 237L455 222Q428 163 398 131T331 86T248 73ZM272 -27H224L254 657H302L272 -27Z" />
<glyph unicode="&#xa3;" horiz-adv-x="495" d="M223 97L158 119Q159 155 156 195T146 276T136 358T132 432Q132 490 153 538T217 615T324 644Q365 644 397 633T448 601T466 553Q466 528 452 517T421 506Q402 506 391 515T370 538T353 565T332 588T299 597Q267
597 250 578T232 502Q232 461 236 423T246 344T253 255Q253 216 245 177T223 97ZM88 -8Q56 -8 34 8T11 61Q11 90 25 108T60 133T103 141Q123 141 139 137T172 126L208 121Q240 107 260 97T297 83T338 78Q378 78 406 95T459 144L481 130Q469 95 449 64T400 14T325
-6Q300 -6 281 0T238 20T178 57L157 69Q150 80 135 89T100 98Q79 98 68 89T56 63Q56 44 68 37T96 30Q114 30 128 42T151 75V89L203 61Q177 22 149 7T88 -8ZM381 304H48V350H381V304Z" />
<glyph unicode="&#xa4;" horiz-adv-x="623" d="M313 53Q252 53 203 82T126 160T97 268Q97 328 125 377T202 454T313 483Q374 483 422 456T499 380T527 269Q527 207 498 158T420 81T313 53ZM193 106L84 -3L40 41L151 149L193 106ZM313 108Q357 108 391 130T446
188T467 270Q467 314 447 349T391 406T311 428Q269 428 234 406T178 348T156 269Q156 225 177 189T234 130T313 108ZM193 432L151 387L40 497L84 540L193 432ZM583 41L541 -3L432 106L476 149L583 41ZM583 497L476 387L432 432L541 540L583 497Z" />
<glyph unicode="&#xa5;" horiz-adv-x="495" d="M394 0H116V32Q155 32 172 38T195 65T200 133V289L87 488Q60 536 46 560T22 591T-6 598V630L227 629V598Q193 598 183 592T173 575Q173 562 180 546T195 515L253 408L280 341H285L368 531Q373 541 376 551T379 571Q379
585 369 591T328 598V630H501V598Q477 597 463 589T436 561T406 503L306 288V153Q306 98 311 73T336 40T393 32L394 0ZM436 142H68V189H436V142ZM436 258H68V305H436V258Z" />
<glyph unicode="&#xa6;" horiz-adv-x="275" d="M170 387H105V679H170V387ZM170 -38H105V254H170V-38Z" />
<glyph unicode="&#xa7;" horiz-adv-x="491" d="M317 78V66L286 93Q303 99 318 107T342 129T352 168Q352 201 328 231T267 292T194 354Q138 403 115 439T92 518Q92 563 116 593T177 637T259 652Q323 652 363 620T404 536Q404 508 392 492T357 476Q340 476 328 485T315
515Q315 530 319 537T327 553T331 575Q331 593 312 606T259 619Q223 619 196 605T169 549Q169 519 187 495T235 447T297 399T359 346T407 284T425 205Q425 171 412 147T375 106T317 78ZM217 -205Q153 -205 113 -171T73 -86Q73 -57 85 -42T122 -26Q137 -26 149 -35T161
-65Q161 -79 158 -87T150 -103T146 -125Q146 -143 165 -157T218 -172Q242 -172 265 -166T304 -145T320 -101Q320 -73 303 -49T257 -2T198 45T140 97T94 159T76 236Q76 290 104 320T176 366V377L210 352Q175 340 161 323T146 277Q146 243 169 213T229 153T300 90L311
80Q334 58 354 36T387 -12T400 -68Q400 -119 373 -149T303 -192T217 -205Z" />
<glyph unicode="&#xa8;" horiz-adv-x="402" d="M311 555Q283 555 266 573T249 617Q249 643 266 661T311 679Q340 679 357 661T374 617Q374 591 357 573T311 555ZM91 555Q63 555 46 573T29 617Q29 643 45 661T91 679Q120 679 137 661T154 617Q154 591 137 573T91 555Z" />
<glyph unicode="&#xa9;" horiz-adv-x="781" d="M389 -14Q292 -14 217 30T98 152T55 330Q55 431 98 509T216 631T389 676Q488 676 564 632T683 509T726 330Q726 230 683 152T564 30T389 -14ZM397 141Q305 141 256 189T207 329Q207 420 255 471T395 523Q428 523
446 519T474 509T493 504Q499 504 514 522H538V388H508Q498 441 470 464T392 487Q351 487 330 469T300 418T292 338Q292 271 321 234T412 197Q457 197 483 207T534 243L554 225Q532 193 496 167T397 141ZM389 19Q479 19 546 59T650 169T688 330Q688 422 651 492T546
603T389 643Q301 643 234 603T130 493T93 330Q93 239 130 169T234 59T389 19Z" />
<glyph unicode="&#xaa;" horiz-adv-x="422" d="M134 246Q88 246 61 270T33 339Q33 376 52 400T100 440T161 465T222 480L250 487V526Q250 574 233 592T183 611Q153 611 144 599T135 552Q135 531 123 521T92 510Q78 510 64 520T50 555Q50 591 90 617T198 644Q269
644 303 614T337 519V341Q337 317 343 310T361 303Q372 303 381 309T399 323L415 306Q395 277 374 262T314 247Q281 247 271 262T255 308L250 321V456Q216 447 187 437T141 408T124 358Q124 330 138 315T174 299Q192 299 213 307T257 336L264 299H251Q231 283 214
271T178 253T134 246Z" />
<glyph unicode="&#xab;" horiz-adv-x="533" d="M268 61L242 38Q209 70 174 102T102 166T31 228V251Q68 283 104 315T175 380T241 442L266 419L130 245V239L268 61ZM480 61L454 38Q421 70 386 102T315 166T244 228V251Q280 283 316 315T387 380T453 442L478 419L343
245V239L480 61Z" />
<glyph unicode="&#xac;" horiz-adv-x="632" d="M614 114H539V331H91V406H614V114Z" />
<glyph unicode="&#xad;" horiz-adv-x="315" d="M272 215H43V286H272V215Z" />
<glyph unicode="&#xae;" horiz-adv-x="413" d="M206 372Q157 372 119 394T58 456T36 546Q36 597 58 636T119 699T206 722Q256 722 294 699T355 637T377 546Q377 496 355 457T295 395T206 372ZM206 392Q272 392 313 435T354 546Q354 615 313 658T206 702Q140 702
100 659T59 546Q59 479 99 436T206 392ZM212 455H114V471Q130 471 136 475T142 496V603Q142 616 138 620T116 624V638H202Q234 638 259 629T285 590Q285 565 270 555T236 541V539Q242 532 251 523T285 485Q292 477 296 474T309 471V455H256Q232 490 223 502T204
528Q198 535 193 535H181V496Q181 479 186 475T212 471V455ZM181 619V552H191Q217 552 229 560T241 590Q241 608 231 613T199 619H181Z" />
<glyph unicode="&#xaf;" horiz-adv-x="350" d="M320 555H30V616H320V555Z" />
<glyph unicode="&#xb0;" horiz-adv-x="413" d="M207 391Q162 391 127 409T72 463T51 547Q51 596 72 630T129 682T209 700Q252 700 287 682T342 630T362 546Q362 497 342 463T287 410T207 391ZM207 444Q250 444 275 472T300 547Q300 594 274 620T205 647Q163 647
138 620T113 546Q113 500 138 472T207 444Z" />
<glyph unicode="&#xb1;" horiz-adv-x="730" d="M403 101H327V309H63V383H327V583H403V383H667V309H403V101ZM667 -35H63V39H667V-35Z" />
<glyph unicode="&#xb2;" horiz-adv-x="375" d="M332 252H24V295L124 396Q165 436 191 466T230 527T243 596Q243 633 221 655T158 677Q118 677 92 663T46 615L24 627Q43 678 82 708T183 738Q252 738 295 703T338 606Q338 569 321 539T273 477T199 408L107 325V320L164
323H256Q288 323 300 337T326 386H357L332 252Z" />
<glyph unicode="&#xb3;" horiz-adv-x="377" d="M122 244Q67 244 49 258T30 290Q30 304 38 316T64 329Q78 329 95 318T132 296T170 284Q190 284 210 291T243 319T257 378Q257 430 217 457T119 484H102V523H118Q144 523 169 534T211 566T228 618Q228 649 206 664T152
680Q121 680 97 668T55 628L31 640Q55 690 92 714T178 739Q241 739 278 710T316 637Q316 595 289 571T224 527V522Q273 510 309 480T345 398Q345 345 313 311T230 260T122 244Z" />
<glyph unicode="&#xb4;" horiz-adv-x="222" d="M70 521H27L97 674H196V652L70 521Z" />
<glyph unicode="&#xb5;" horiz-adv-x="561" d="M234 -13Q201 -13 181 5T149 46T129 79H74L73 470L172 473L180 459L142 220Q142 220 142 213T141 197Q141 167 151 142T182 102T231 87Q257 87 277 103T313 145T338 198T353 247T359 277L362 470L457 473L465 459L422
217Q423 179 428 146T447 93T487 73Q514 73 527 85T553 112L572 99Q564 74 549 49T509 7T451 -10Q425 -10 411 2T389 38T378 93T370 164H363Q349 92 329 54T284 1T234 -13ZM145 -191L64 -217L43 -214Q44 -141 47 -82T57 37T77 167L150 71H129Q130 31 131 -7T135
-88T145 -191Z" />
<glyph unicode="&#xb6;" horiz-adv-x="637" d="M343 -158H172V-124Q213 -122 232 -115T257 -87T263 -25V617Q220 612 196 595T162 545T152 457Q152 371 180 330T272 283L274 247Q207 253 158 273T82 336T55 454Q55 558 112 607T284 657H577V626Q537 624 518 615T493
585T486 528V-37Q486 -71 492 -89T517 -114T577 -124V-158H406V617H343V-158Z" />
<glyph unicode="&#xb7;" horiz-adv-x="291" d="M145 198Q113 198 97 215T81 260Q81 288 97 307T146 326Q178 326 194 307T210 259Q210 232 194 215T145 198Z" />
<glyph unicode="&#xb8;" horiz-adv-x="247" d="M113 -217Q84 -217 65 -206T27 -181L40 -155Q54 -164 69 -169T104 -175Q129 -175 143 -165T158 -132Q158 -115 149 -104T115 -92Q103 -92 93 -93T83 -95L69 -83L90 4H123L109 -56Q109 -56 117 -55T136 -54Q175 -54
198 -73T221 -128Q221 -170 192 -193T113 -217Z" />
<glyph unicode="&#xb9;" horiz-adv-x="350" d="M312 252H45V282Q98 282 116 292T134 331V638Q134 658 128 667T106 676Q94 676 74 673T39 666V699L174 735H222V331Q222 303 241 293T312 282V252Z" />
<glyph unicode="&#xba;" horiz-adv-x="437" d="M219 243Q132 243 81 292T29 447Q29 504 51 548T116 618T219 643Q308 643 358 591T408 450Q408 381 384 335T318 266T219 243ZM220 282Q266 282 289 319T313 447Q313 521 290 563T216 605Q171 605 148 565T124 452Q124
360 149 321T220 282Z" />
<glyph unicode="&#xbb;" horiz-adv-x="533" d="M291 38L266 61L403 239V245L268 419L292 442Q324 412 358 380T429 316T502 251V228Q467 198 431 167T359 103T291 38ZM78 38L54 61L191 239V245L55 419L80 442Q112 412 146 380T217 316T290 251V228Q255 198 219
167T147 103T78 38Z" />
<glyph unicode="&#xbc;" horiz-adv-x="885" d="M297 252H49V283Q102 283 115 293T128 332V565Q128 585 122 594T100 603Q88 603 73 600T43 593V627L168 663H217V332Q217 304 231 294T297 283V252ZM259 -20H197L623 692H684L259 -20ZM789 0H704V93H508V148L723
413H789V161H859V93H789V0ZM573 164V161H704V321H699L573 164Z" />
<glyph unicode="&#xbd;" horiz-adv-x="907" d="M297 252H49V283Q102 283 115 293T128 332V565Q128 585 122 594T100 603Q88 603 73 600T43 593V627L168 663H217V332Q217 304 231 294T297 283V252ZM259 -20H197L623 692H684L259 -20ZM862 0H556V39L656 121Q698
155 722 179T758 229T769 288Q769 321 750 340T689 359Q652 359 626 347T580 308L558 319Q577 361 618 388T716 416Q786 416 824 385T863 301Q863 266 848 239T804 187T731 131L648 72V67L705 70H789Q821 70 833 84T859 133H887L862 0Z" />
<glyph unicode="&#xbe;" horiz-adv-x="871" d="M125 244Q70 244 50 258T29 293Q29 307 37 318T63 330Q76 330 88 323T114 306T141 290T172 282Q193 282 210 288T237 310T248 355Q248 402 213 421T116 440H102V479H116Q143 479 169 487T211 513T228 555Q228 583
207 597T155 611Q121 611 96 598T54 557L30 568Q54 618 94 643T185 668Q247 668 281 643T315 578Q315 552 303 535T271 505T224 481V476Q274 467 305 442T337 370Q337 334 319 310T271 271T202 250T125 244ZM257 -20H195L621 692H682L257 -20ZM778 0H693V93H497V148L712
413H778V161H848V93H778V0ZM562 164V161H693V321H688L562 164Z" />
<glyph unicode="&#xbf;" horiz-adv-x="427" d="M223 -197Q173 -197 130 -182T59 -133T32 -47Q32 -1 49 35T90 103T139 162T181 218T198 280V296H244V270Q244 231 234 202T208 148T177 97T151 36T140 -44Q140 -103 166 -129T237 -156Q277 -156 296 -141T316 -103Q316
-86 311 -77T301 -59T295 -31Q295 -6 310 5T344 17Q370 17 386 -2T402 -58Q402 -98 380 -129T317 -179T223 -197ZM220 356Q189 356 173 375T157 422Q157 449 173 465T220 482Q252 482 268 466T284 421Q284 392 268 374T220 356Z" />
<glyph unicode="&#xc0;" horiz-adv-x="728" d="M218 0H3V34Q30 34 47 42T79 76T115 154L329 662H390L620 125Q642 76 663 55T722 34V0H437V34Q451 34 466 36T492 45T503 70Q503 81 499 97T485 136L446 227L439 249L331 530H328L215 249L207 227L163 121Q159 109
155 96T151 69Q151 47 167 41T218 34V0ZM463 216H191L207 260H447L463 216ZM459 698H406L249 803V828H355L459 698Z" />
<glyph unicode="&#xc1;" horiz-adv-x="728" d="M218 0H3V34Q30 34 47 42T79 76T115 154L329 662H390L620 125Q642 76 663 55T722 34V0H437V34Q451 34 466 36T492 45T503 70Q503 81 499 97T485 136L446 227L439 249L331 530H328L215 249L207 227L163 121Q159 109
155 96T151 69Q151 47 167 41T218 34V0ZM463 216H191L207 260H447L463 216ZM313 698H261L364 828H471V803L313 698Z" />
<glyph unicode="&#xc2;" horiz-adv-x="728" d="M218 0H3V34Q30 34 47 42T79 76T115 154L329 662H390L620 125Q642 76 663 55T722 34V0H437V34Q451 34 466 36T492 45T503 70Q503 81 499 97T485 136L446 227L439 249L331 530H328L215 249L207 227L163 121Q159 109
155 96T151 69Q151 47 167 41T218 34V0ZM463 216H191L207 260H447L463 216ZM255 698H207L321 836H399L512 698H466L359 775L255 698Z" />
<glyph unicode="&#xc3;" horiz-adv-x="728" d="M218 0H3V34Q30 34 47 42T79 76T115 154L329 662H390L620 125Q642 76 663 55T722 34V0H437V34Q451 34 466 36T492 45T503 70Q503 81 499 97T485 136L446 227L439 249L331 530H328L215 249L207 227L163 121Q159 109
155 96T151 69Q151 47 167 41T218 34V0ZM463 216H191L207 260H447L463 216ZM230 709H200Q209 756 236 784T303 812Q331 812 354 804T398 787T442 778Q463 778 477 786T499 816H529Q517 761 492 736T424 711Q396 711 374 720T332 737T287 746Q266 746 252 737T230
709Z" />
<glyph unicode="&#xc4;" horiz-adv-x="728" d="M218 0H3V34Q30 34 47 42T79 76T115 154L329 662H390L620 125Q642 76 663 55T722 34V0H437V34Q451 34 466 36T492 45T503 70Q503 81 499 97T485 136L446 227L439 249L331 530H328L215 249L207 227L163 121Q159 109
155 96T151 69Q151 47 167 41T218 34V0ZM463 216H191L207 260H447L463 216ZM469 704Q442 704 425 721T408 764Q408 790 424 807T469 825Q498 825 515 808T532 765Q532 739 515 722T469 704ZM248 704Q221 704 204 721T187 764Q187 790 203 807T248 825Q277 825 294
808T311 765Q311 739 294 722T248 704Z" />
<glyph unicode="&#xc5;" horiz-adv-x="728" d="M218 0H3V34Q30 34 47 42T79 76T115 154L329 662H390L620 125Q642 76 663 55T722 34V0H437V34Q451 34 466 36T492 45T503 70Q503 81 499 97T485 136L446 227L439 249L331 530H328L215 249L207 227L163 121Q159 109
155 96T151 69Q151 47 167 41T218 34V0ZM463 216H191L207 260H447L463 216ZM359 697Q315 697 283 722T251 795Q251 840 282 866T359 892Q405 892 436 866T467 795Q467 748 436 723T359 697ZM359 738Q388 738 401 754T415 795Q415 819 401 835T359 852Q331 852 317
836T303 795Q303 770 317 754T359 738Z" />
<glyph unicode="&#xc6;" horiz-adv-x="913" d="M199 0H-23V34Q5 34 23 44T58 78T95 138L326 550Q331 561 335 571T339 592Q339 612 324 617T279 623V657H848L854 488H816Q809 538 794 563T748 597T660 606H525V345H624Q670 345 694 352T726 379T735 440H773V212H735Q735
252 727 271T694 295T624 301H525V49H641Q696 49 730 54T785 74T819 117T847 189H884L856 0H319V34Q365 34 385 41T410 73T416 149V301H234L253 345H416V606H409L260 334L251 311L147 123Q141 113 137 99T132 72Q132 49 148 42T199 34V0Z" />
<glyph unicode="&#xc7;" horiz-adv-x="675" d="M363 -11Q258 -11 188 32T83 152T48 326Q48 437 90 513T208 629T380 669Q433 669 464 661T514 643T546 634Q560 634 566 644T579 669H613V435H575Q558 531 508 577T380 623Q277 623 223 549T169 341Q169 243 197
182T276 91T398 62Q469 62 519 88T612 160L638 137Q609 95 572 62T484 9T363 -11ZM346 -217Q317 -217 298 -206T260 -181L273 -155Q287 -164 302 -169T337 -175Q362 -175 376 -165T391 -132Q391 -115 381 -104T348 -92Q336 -92 326 -93T316 -95L302 -83L323 4H356L342
-56Q342 -56 350 -55T369 -54Q408 -54 431 -73T455 -129Q455 -171 425 -194T346 -217Z" />
<glyph unicode="&#xc8;" horiz-adv-x="637" d="M582 0H36V34Q74 34 94 39T123 63T131 121V531Q131 569 124 589T97 616T36 623V657H572L578 488H540Q533 536 520 561T475 596T383 606H241V360H349Q397 360 420 367T452 394T460 455H497V223H460Q460 265 452 284T421
310T349 316H241V49H367Q422 49 456 55T511 76T544 118T572 189H609L582 0ZM429 698H376L219 803V828H325L429 698Z" />
<glyph unicode="&#xc9;" horiz-adv-x="637" d="M582 0H36V34Q74 34 94 39T123 63T131 121V531Q131 569 124 589T97 616T36 623V657H572L578 488H540Q533 536 520 561T475 596T383 606H241V360H349Q397 360 420 367T452 394T460 455H497V223H460Q460 265 452 284T421
310T349 316H241V49H367Q422 49 456 55T511 76T544 118T572 189H609L582 0ZM284 698H232L335 828H442V803L284 698Z" />
<glyph unicode="&#xca;" horiz-adv-x="637" d="M582 0H36V34Q74 34 94 39T123 63T131 121V531Q131 569 124 589T97 616T36 623V657H572L578 488H540Q533 536 520 561T475 596T383 606H241V360H349Q397 360 420 367T452 394T460 455H497V223H460Q460 265 452 284T421
310T349 316H241V49H367Q422 49 456 55T511 76T544 118T572 189H609L582 0ZM226 698H178L292 836H370L483 698H437L330 775L226 698Z" />
<glyph unicode="&#xcb;" horiz-adv-x="637" d="M582 0H36V34Q74 34 94 39T123 63T131 121V531Q131 569 124 589T97 616T36 623V657H572L578 488H540Q533 536 520 561T475 596T383 606H241V360H349Q397 360 420 367T452 394T460 455H497V223H460Q460 265 452 284T421
310T349 316H241V49H367Q422 49 456 55T511 76T544 118T572 189H609L582 0ZM440 704Q413 704 396 721T379 764Q379 790 395 807T440 825Q469 825 486 808T503 765Q503 739 486 722T440 704ZM219 704Q192 704 175 721T158 764Q158 790 174 807T219 825Q248 825 265
808T282 765Q282 739 265 722T219 704Z" />
<glyph unicode="&#xcc;" horiz-adv-x="372" d="M336 0H34V34Q79 34 99 41T125 70T131 135V521Q131 560 126 582T101 614T34 623V657H337V623Q291 623 271 614T246 583T241 521V135Q241 92 246 71T272 42T336 34V0ZM286 698H233L76 803V828H182L286 698Z" />
<glyph unicode="&#xcd;" horiz-adv-x="372" d="M336 0H34V34Q79 34 99 41T125 70T131 135V521Q131 560 126 582T101 614T34 623V657H337V623Q291 623 271 614T246 583T241 521V135Q241 92 246 71T272 42T336 34V0ZM140 698H88L191 828H298V803L140 698Z" />
<glyph unicode="&#xce;" horiz-adv-x="372" d="M336 0H34V34Q79 34 99 41T125 70T131 135V521Q131 560 126 582T101 614T34 623V657H337V623Q291 623 271 614T246 583T241 521V135Q241 92 246 71T272 42T336 34V0ZM82 698H34L148 836H226L339 698H293L186 775L82 698Z" />
<glyph unicode="&#xcf;" horiz-adv-x="372" d="M336 0H34V34Q79 34 99 41T125 70T131 135V521Q131 560 126 582T101 614T34 623V657H337V623Q291 623 271 614T246 583T241 521V135Q241 92 246 71T272 42T336 34V0ZM296 704Q269 704 252 721T235 764Q235 790 251
807T296 825Q325 825 342 808T359 765Q359 739 342 722T296 704ZM75 704Q48 704 31 721T14 764Q14 790 30 807T75 825Q104 825 121 808T138 765Q138 739 121 722T75 704Z" />
<glyph unicode="&#xd0;" horiz-adv-x="746" d="M328 0H40V34Q83 34 103 40T129 67T136 128V539Q136 576 127 593T97 616T40 622V657H319Q396 657 464 642T585 589T668 489T698 332Q698 243 671 180T594 76T477 18T328 0ZM411 308H41V361H411V308ZM301 44Q387 44
447 67T540 152T573 323Q573 464 506 537T292 611Q280 611 270 611T246 609V46Q260 45 273 45T301 44Z" />
<glyph unicode="&#xd1;" horiz-adv-x="759" d="M644 -8H585L181 521H150L128 563Q110 589 96 601T66 618T27 623V657H220L584 178H589V494Q589 538 583 566T558 609T494 623V657H735V623Q695 623 676 609T650 565T644 490V-8ZM267 0H27V34Q67 34 87 48T114 94T121
176V592H176V153Q176 103 183 78T210 43T267 34V0ZM262 709H232Q241 756 268 784T335 812Q363 812 386 804T430 787T474 778Q495 778 509 786T531 816H561Q549 761 524 736T456 711Q428 711 406 720T364 737T319 746Q298 746 284 737T262 709Z" />
<glyph unicode="&#xd2;" horiz-adv-x="740" d="M371 -13Q270 -13 198 28T87 145T48 329Q48 432 87 508T198 627T371 669Q472 669 544 628T654 513T692 338Q692 232 654 153T543 31T371 -13ZM372 33Q472 33 521 108T571 335Q571 426 546 490T475 589T368 624Q276
624 223 548T170 335Q170 194 220 114T372 33ZM469 698H416L259 803V828H365L469 698Z" />
<glyph unicode="&#xd3;" horiz-adv-x="740" d="M371 -13Q270 -13 198 28T87 145T48 329Q48 432 87 508T198 627T371 669Q472 669 544 628T654 513T692 338Q692 232 654 153T543 31T371 -13ZM372 33Q472 33 521 108T571 335Q571 426 546 490T475 589T368 624Q276
624 223 548T170 335Q170 194 220 114T372 33ZM323 698H271L374 828H481V803L323 698Z" />
<glyph unicode="&#xd4;" horiz-adv-x="740" d="M371 -13Q270 -13 198 28T87 145T48 329Q48 432 87 508T198 627T371 669Q472 669 544 628T654 513T692 338Q692 232 654 153T543 31T371 -13ZM372 33Q472 33 521 108T571 335Q571 426 546 490T475 589T368 624Q276
624 223 548T170 335Q170 194 220 114T372 33ZM265 698H217L331 836H409L522 698H476L369 775L265 698Z" />
<glyph unicode="&#xd5;" horiz-adv-x="740" d="M371 -13Q270 -13 198 28T87 145T48 329Q48 432 87 508T198 627T371 669Q472 669 544 628T654 513T692 338Q692 232 654 153T543 31T371 -13ZM372 33Q472 33 521 108T571 335Q571 426 546 490T475 589T368 624Q276
624 223 548T170 335Q170 194 220 114T372 33ZM240 709H210Q219 756 246 784T313 812Q341 812 364 804T408 787T452 778Q473 778 487 786T509 816H539Q527 761 502 736T434 711Q406 711 384 720T342 737T297 746Q276 746 262 737T240 709Z" />
<glyph unicode="&#xd6;" horiz-adv-x="740" d="M371 -13Q270 -13 198 28T87 145T48 329Q48 432 87 508T198 627T371 669Q472 669 544 628T654 513T692 338Q692 232 654 153T543 31T371 -13ZM372 33Q472 33 521 108T571 335Q571 426 546 490T475 589T368 624Q276
624 223 548T170 335Q170 194 220 114T372 33ZM479 704Q452 704 435 721T418 764Q418 790 434 807T479 825Q508 825 525 808T542 765Q542 739 525 722T479 704ZM258 704Q231 704 214 721T197 764Q197 790 213 807T258 825Q287 825 304 808T321 765Q321 739 304
722T258 704Z" />
<glyph unicode="&#xd7;" horiz-adv-x="669" d="M623 495L98 -31L46 21L571 546L623 495ZM623 22L572 -31L46 494L99 546L623 22Z" />
<glyph unicode="&#xd8;" horiz-adv-x="741" d="M371 -13Q269 -13 197 28T87 146T49 329Q49 432 87 508T198 627T371 669Q472 669 543 628T653 513T692 338Q692 232 654 153T544 31T371 -13ZM175 57L114 -19L77 11L139 89L175 57ZM548 525L212 103L186 145L518
561L548 525ZM372 33Q473 33 522 108T571 335Q571 416 548 481T480 585T368 624Q277 624 224 548T170 335Q170 250 190 182T254 73T372 33ZM646 645L592 577L555 607L609 675L646 645Z" />
<glyph unicode="&#xd9;" horiz-adv-x="767" d="M387 -13Q246 -13 183 48T119 249V535Q119 570 112 589T84 615T23 623V657H326V623Q285 623 264 616T236 588T229 530V255Q229 190 245 146T302 80T412 57Q508 57 551 102T595 250V495Q595 548 589 575T563 613T501
623V657H751V623Q708 623 688 613T662 577T656 498V262Q656 125 594 56T387 -13ZM514 698H461L304 803V828H410L514 698Z" />
<glyph unicode="&#xda;" horiz-adv-x="767" d="M387 -13Q246 -13 183 48T119 249V535Q119 570 112 589T84 615T23 623V657H326V623Q285 623 264 616T236 588T229 530V255Q229 190 245 146T302 80T412 57Q508 57 551 102T595 250V495Q595 548 589 575T563 613T501
623V657H751V623Q708 623 688 613T662 577T656 498V262Q656 125 594 56T387 -13ZM368 698H316L419 828H526V803L368 698Z" />
<glyph unicode="&#xdb;" horiz-adv-x="767" d="M387 -13Q246 -13 183 48T119 249V535Q119 570 112 589T84 615T23 623V657H326V623Q285 623 264 616T236 588T229 530V255Q229 190 245 146T302 80T412 57Q508 57 551 102T595 250V495Q595 548 589 575T563 613T501
623V657H751V623Q708 623 688 613T662 577T656 498V262Q656 125 594 56T387 -13ZM310 698H262L376 836H454L567 698H521L414 775L310 698Z" />
<glyph unicode="&#xdc;" horiz-adv-x="767" d="M387 -13Q246 -13 183 48T119 249V535Q119 570 112 589T84 615T23 623V657H326V623Q285 623 264 616T236 588T229 530V255Q229 190 245 146T302 80T412 57Q508 57 551 102T595 250V495Q595 548 589 575T563 613T501
623V657H751V623Q708 623 688 613T662 577T656 498V262Q656 125 594 56T387 -13ZM524 704Q497 704 480 721T463 764Q463 790 479 807T524 825Q553 825 570 808T587 765Q587 739 570 722T524 704ZM303 704Q276 704 259 721T242 764Q242 790 258 807T303 825Q332
825 349 808T366 765Q366 739 349 722T303 704Z" />
<glyph unicode="&#xdd;" horiz-adv-x="656" d="M489 0H176V34Q220 34 241 40T269 67T276 133V268L146 480Q116 530 95 558T57 601T26 619T-7 623V657H276V623Q234 623 222 617T210 600Q210 581 227 555L315 408L357 329H363L492 560Q497 567 500 577T504 597Q504
610 492 616T442 623V657H663V623Q634 621 614 614T576 587T534 528L386 271V133Q386 89 394 68T425 41T489 34V0ZM299 698H247L350 828H457V803L299 698Z" />
<glyph unicode="&#xde;" horiz-adv-x="594" d="M343 0H34V34Q80 34 100 41T125 69T131 135V521Q131 560 126 582T101 614T34 623V657H344V623Q302 623 280 615T249 587T241 538V526Q253 528 272 529T319 531Q366 531 410 524T488 498T543 446T564 362Q564 303
542 264T483 202T399 169T302 159Q287 159 270 162T241 167V135Q241 93 248 72T277 42T343 34V0ZM290 206Q343 206 377 218T429 263T446 354Q446 422 409 456T291 490Q278 490 267 490T241 487V210Q250 208 262 207T290 206Z" />
<glyph unicode="&#xdf;" horiz-adv-x="595" d="M360 -6Q310 -6 278 18T245 78Q245 101 256 115T291 129Q312 129 323 115T343 81T360 47T386 32Q402 32 417 42T443 84T453 180Q453 241 430 283T367 349T280 378V430Q340 440 371 468T403 564Q403 622 379 649T303
677Q270 677 248 667T214 632T202 563V0H17V32Q47 32 65 36T91 57T99 109V471Q99 512 103 543T116 600T144 649Q169 682 209 698T313 714Q402 714 453 677T504 569Q504 508 465 471T344 411V407Q382 402 420 387T491 346T544 281T564 189Q564 135 547 98T500 38T435
5T360 -6ZM112 420H25V468H112V420Z" />
<glyph unicode="&#xe0;" horiz-adv-x="495" d="M158 -8Q101 -8 69 22T36 104Q36 145 54 173T103 220T168 251T238 273T299 290V336Q299 400 280 425T218 450Q179 450 168 434T156 372Q156 346 142 334T105 321Q88 321 73 334T57 375Q57 403 79 428T141 469T237
485Q323 485 362 448T401 331V107Q401 76 408 67T431 58Q445 58 456 65T479 84L496 66Q471 30 446 12T377 -7Q336 -7 323 12T305 70L299 85V255Q256 244 221 230T164 192T142 130Q142 93 159 73T206 52Q230 52 255 64T308 101L315 59H302Q279 39 259 24T215 0T158
-8ZM295 521H253L127 655V677H225L295 521Z" />
<glyph unicode="&#xe1;" horiz-adv-x="495" d="M158 -8Q101 -8 69 22T36 104Q36 145 54 173T103 220T168 251T238 273T299 290V336Q299 400 280 425T218 450Q179 450 168 434T156 372Q156 346 142 334T105 321Q88 321 73 334T57 375Q57 403 79 428T141 469T237
485Q323 485 362 448T401 331V107Q401 76 408 67T431 58Q445 58 456 65T479 84L496 66Q471 30 446 12T377 -7Q336 -7 323 12T305 70L299 85V255Q256 244 221 230T164 192T142 130Q142 93 159 73T206 52Q230 52 255 64T308 101L315 59H302Q279 39 259 24T215 0T158
-8ZM226 521H184L254 677H353V655L226 521Z" />
<glyph unicode="&#xe2;" horiz-adv-x="495" d="M158 -8Q101 -8 69 22T36 104Q36 145 54 173T103 220T168 251T238 273T299 290V336Q299 400 280 425T218 450Q179 450 168 434T156 372Q156 346 142 334T105 321Q88 321 73 334T57 375Q57 403 79 428T141 469T237
485Q323 485 362 448T401 331V107Q401 76 408 67T431 58Q445 58 456 65T479 84L496 66Q471 30 446 12T377 -7Q336 -7 323 12T305 70L299 85V255Q256 244 221 230T164 192T142 130Q142 93 159 73T206 52Q230 52 255 64T308 101L315 59H302Q279 39 259 24T215 0T158
-8ZM140 521H95L202 677H277L384 521H340L240 617L140 521Z" />
<glyph unicode="&#xe3;" horiz-adv-x="495" d="M158 -8Q101 -8 69 22T36 104Q36 145 54 173T103 220T168 251T238 273T299 290V336Q299 400 280 425T218 450Q179 450 168 434T156 372Q156 346 142 334T105 321Q88 321 73 334T57 375Q57 403 79 428T141 469T237
485Q323 485 362 448T401 331V107Q401 76 408 67T431 58Q445 58 456 65T479 84L496 66Q471 30 446 12T377 -7Q336 -7 323 12T305 70L299 85V255Q256 244 221 230T164 192T142 130Q142 93 159 73T206 52Q230 52 255 64T308 101L315 59H302Q279 39 259 24T215 0T158
-8ZM113 533H82Q90 583 118 614T186 645Q214 645 235 635T276 614T319 603Q337 603 352 613T377 649H406Q395 591 369 564T299 536Q271 536 250 546T210 567T167 578Q149 578 135 568T113 533Z" />
<glyph unicode="&#xe4;" horiz-adv-x="495" d="M158 -8Q101 -8 69 22T36 104Q36 145 54 173T103 220T168 251T238 273T299 290V336Q299 400 280 425T218 450Q179 450 168 434T156 372Q156 346 142 334T105 321Q88 321 73 334T57 375Q57 403 79 428T141 469T237
485Q323 485 362 448T401 331V107Q401 76 408 67T431 58Q445 58 456 65T479 84L496 66Q471 30 446 12T377 -7Q336 -7 323 12T305 70L299 85V255Q256 244 221 230T164 192T142 130Q142 93 159 73T206 52Q230 52 255 64T308 101L315 59H302Q279 39 259 24T215 0T158
-8ZM349 555Q321 555 304 573T287 617Q287 643 304 661T349 679Q378 679 395 661T412 617Q412 591 395 573T349 555ZM129 555Q101 555 84 573T67 617Q67 643 83 661T129 679Q158 679 175 661T192 617Q192 591 175 573T129 555Z" />
<glyph unicode="&#xe5;" horiz-adv-x="495" d="M158 -8Q101 -8 69 22T36 104Q36 145 54 173T103 220T168 251T238 273T299 290V336Q299 400 280 425T218 450Q179 450 168 434T156 372Q156 346 142 334T105 321Q88 321 73 334T57 375Q57 403 79 428T141 469T237
485Q323 485 362 448T401 331V107Q401 76 408 67T431 58Q445 58 456 65T479 84L496 66Q471 30 446 12T377 -7Q336 -7 323 12T305 70L299 85V255Q256 244 221 230T164 192T142 130Q142 93 159 73T206 52Q230 52 255 64T308 101L315 59H302Q279 39 259 24T215 0T158
-8ZM239 528Q195 528 164 554T133 630Q133 676 164 703T239 731Q284 731 314 704T345 629Q345 579 315 554T239 528ZM239 570Q268 570 281 586T295 630Q295 655 281 672T239 690Q211 690 198 673T184 630Q184 603 197 587T239 570Z" />
<glyph unicode="&#xe6;" horiz-adv-x="725" d="M497 -10Q430 -10 388 16T314 97Q302 135 298 175T294 263V336Q294 400 275 425T218 450Q181 450 167 434T153 372Q153 346 140 334T102 321Q85 321 70 334T54 374Q54 404 77 429T140 469T232 485Q279 485 310 470T359
423H364Q391 455 424 470T503 485Q585 485 637 428T692 263H383V303H578Q577 342 567 374T538 425T485 444Q437 444 415 404T392 278Q392 173 425 124T531 75Q571 75 596 85T640 112T674 150L696 134Q682 106 665 80T626 33T573 2T497 -10ZM153 -8Q102 -8 69 21T36
103Q36 144 55 172T104 220T169 253T240 275T300 293L304 258Q261 246 224 232T164 194T141 130Q141 93 158 73T204 52Q232 52 262 69T318 116L339 74H324Q306 55 283 36T227 5T153 -8Z" />
<glyph unicode="&#xe7;" horiz-adv-x="461" d="M422 155L443 140Q424 99 399 65T336 10T240 -10Q176 -10 130 19T58 101T32 226Q32 304 59 362T138 452T267 485Q343 485 386 454T429 378Q429 353 415 340T378 327Q354 327 342 339T322 368T308 403T288 433T247
445Q191 445 162 401T132 273Q132 184 166 130T278 75Q328 75 359 94T422 155ZM248 -217Q219 -217 200 -206T162 -181L175 -155Q189 -164 204 -169T239 -175Q264 -175 278 -165T293 -132Q293 -115 283 -104T250 -92Q238 -92 228 -93T218 -95L204 -83L225 4H258L244
-56Q244 -56 252 -55T271 -54Q310 -54 333 -73T357 -129Q357 -171 327 -194T248 -217Z" />
<glyph unicode="&#xe8;" horiz-adv-x="480" d="M251 -10Q187 -10 138 18T61 101T33 237Q33 321 63 376T143 458T254 485Q340 485 392 428T447 263H125L124 303H334Q333 342 323 374T293 425T239 444Q185 444 160 400T134 271Q134 203 154 160T208 96T284 75Q324
75 350 85T395 112T430 150L451 134Q437 106 420 80T381 33T327 2T251 -10ZM305 521H263L137 655V677H235L305 521Z" />
<glyph unicode="&#xe9;" horiz-adv-x="480" d="M251 -10Q187 -10 138 18T61 101T33 237Q33 321 63 376T143 458T254 485Q340 485 392 428T447 263H125L124 303H334Q333 342 323 374T293 425T239 444Q185 444 160 400T134 271Q134 203 154 160T208 96T284 75Q324
75 350 85T395 112T430 150L451 134Q437 106 420 80T381 33T327 2T251 -10ZM236 521H194L264 677H363V655L236 521Z" />
<glyph unicode="&#xea;" horiz-adv-x="480" d="M251 -10Q187 -10 138 18T61 101T33 237Q33 321 63 376T143 458T254 485Q340 485 392 428T447 263H125L124 303H334Q333 342 323 374T293 425T239 444Q185 444 160 400T134 271Q134 203 154 160T208 96T284 75Q324
75 350 85T395 112T430 150L451 134Q437 106 420 80T381 33T327 2T251 -10ZM150 521H105L212 677H287L394 521H350L250 617L150 521Z" />
<glyph unicode="&#xeb;" horiz-adv-x="480" d="M251 -10Q187 -10 138 18T61 101T33 237Q33 321 63 376T143 458T254 485Q340 485 392 428T447 263H125L124 303H334Q333 342 323 374T293 425T239 444Q185 444 160 400T134 271Q134 203 154 160T208 96T284 75Q324
75 350 85T395 112T430 150L451 134Q437 106 420 80T381 33T327 2T251 -10ZM359 555Q331 555 314 573T297 617Q297 643 314 661T359 679Q388 679 405 661T422 617Q422 591 405 573T359 555ZM139 555Q111 555 94 573T77 617Q77 643 93 661T139 679Q168 679 185 661T202
617Q202 591 185 573T139 555Z" />
<glyph unicode="&#xec;" horiz-adv-x="298" d="M274 32V0H28V32Q61 32 76 38T95 60T99 104V375Q99 408 88 415T53 423Q43 423 36 422T28 421V454L162 482H200V105Q200 76 204 60T225 38T274 32ZM189 521H147L21 655V677H119L189 521Z" />
<glyph unicode="&#xed;" horiz-adv-x="298" d="M274 32V0H28V32Q61 32 76 38T95 60T99 104V375Q99 408 88 415T53 423Q43 423 36 422T28 421V454L162 482H200V105Q200 76 204 60T225 38T274 32ZM120 521H78L148 677H247V655L120 521Z" />
<glyph unicode="&#xee;" horiz-adv-x="298" d="M274 0H28V32Q61 32 76 38T95 60T99 104V375Q99 408 88 415T53 423Q43 423 36 422T28 421V454L162 482H200V105Q200 76 204 60T225 38T274 32V0ZM41 521H-3L96 674H169L269 521H224L133 615L41 521Z" />
<glyph unicode="&#xef;" horiz-adv-x="298" d="M274 0H28V32Q61 32 76 38T95 60T99 104V375Q99 408 88 415T53 423Q43 423 36 422T28 421V454L162 482H200V105Q200 76 204 60T225 38T274 32V0ZM33 557Q5 557 -12 575T-29 619Q-29 645 -12 662T33 680Q62 680 79
663T96 619Q96 593 79 575T33 557ZM232 557Q204 557 187 575T170 619Q170 645 187 662T232 680Q262 680 278 663T295 619Q295 593 279 575T232 557Z" />
<glyph unicode="&#xf0;" horiz-adv-x="541" d="M259 -10Q153 -10 93 50T33 232Q33 302 60 354T137 436T254 466Q292 466 321 454T377 420L383 423Q376 489 349 543T279 628T178 660Q150 660 129 655T96 645L83 674Q113 695 144 705T213 715Q286 715 338 681T425
588T476 457T493 303Q493 194 464 125T381 23T259 -10ZM265 32Q318 32 348 83T379 256Q379 338 348 381T255 424Q204 424 175 381T145 246Q145 137 175 85T265 32ZM489 661L208 525L191 558L473 695L489 661Z" />
<glyph unicode="&#xf1;" horiz-adv-x="598" d="M578 0H332V32Q366 32 381 38T400 60T404 104V278Q404 333 392 362T360 401T315 411Q288 411 267 401T228 376T193 347L187 401H203Q243 437 279 461T362 485Q433 485 469 439T506 302V104Q506 77 510 61T530 39T578
32V0ZM276 0H30V32Q63 32 77 38T95 61T99 104V378Q99 405 89 413T58 422Q45 422 38 421T31 420V453L166 482H199V389L202 366V104Q202 77 206 61T225 39T276 32V0ZM180 533H149Q157 583 185 614T253 645Q281 645 302 635T343 614T386 603Q404 603 419 613T444 649H473Q462
591 436 564T366 536Q338 536 317 546T277 567T234 578Q216 578 202 568T180 533Z" />
<glyph unicode="&#xf2;" horiz-adv-x="525" d="M263 -10Q154 -10 94 54T33 241Q33 313 60 368T140 454T264 485Q372 485 431 422T491 248Q491 163 463 106T384 19T263 -10ZM267 33Q305 33 330 53T368 118T380 242Q380 334 350 389T259 444Q205 444 175 395T145
253Q145 138 176 85T267 33ZM322 521H280L154 655V677H252L322 521Z" />
<glyph unicode="&#xf3;" horiz-adv-x="525" d="M263 -10Q154 -10 94 54T33 241Q33 313 60 368T140 454T264 485Q372 485 431 422T491 248Q491 163 463 106T384 19T263 -10ZM267 33Q305 33 330 53T368 118T380 242Q380 334 350 389T259 444Q205 444 175 395T145
253Q145 138 176 85T267 33ZM253 521H211L281 677H380V655L253 521Z" />
<glyph unicode="&#xf4;" horiz-adv-x="525" d="M263 -10Q154 -10 94 54T33 241Q33 313 60 368T140 454T264 485Q372 485 431 422T491 248Q491 163 463 106T384 19T263 -10ZM267 33Q305 33 330 53T368 118T380 242Q380 334 350 389T259 444Q205 444 175 395T145
253Q145 138 176 85T267 33ZM167 521H122L229 677H304L411 521H367L267 617L167 521Z" />
<glyph unicode="&#xf5;" horiz-adv-x="525" d="M263 -10Q154 -10 94 54T33 241Q33 313 60 368T140 454T264 485Q372 485 431 422T491 248Q491 163 463 106T384 19T263 -10ZM267 33Q305 33 330 53T368 118T380 242Q380 334 350 389T259 444Q205 444 175 395T145
253Q145 138 176 85T267 33ZM140 533H109Q117 583 145 614T213 645Q241 645 262 635T303 614T346 603Q364 603 379 613T404 649H433Q422 591 396 564T326 536Q298 536 277 546T237 567T194 578Q176 578 162 568T140 533Z" />
<glyph unicode="&#xf6;" horiz-adv-x="525" d="M263 -10Q154 -10 94 54T33 241Q33 313 60 368T140 454T264 485Q372 485 431 422T491 248Q491 163 463 106T384 19T263 -10ZM267 33Q305 33 330 53T368 118T380 242Q380 334 350 389T259 444Q205 444 175 395T145
253Q145 138 176 85T267 33ZM376 555Q348 555 331 573T314 617Q314 643 331 661T376 679Q405 679 422 661T439 617Q439 591 422 573T376 555ZM156 555Q128 555 111 573T94 617Q94 643 110 661T156 679Q185 679 202 661T219 617Q219 591 202 573T156 555Z" />
<glyph unicode="&#xf7;" horiz-adv-x="607" d="M566 221H41V297H566V221ZM304 -14Q279 -14 261 3T243 46Q243 72 261 89T305 107Q328 107 346 89T365 45Q365 21 347 4T304 -14ZM304 410Q279 410 261 427T243 471Q243 497 261 514T305 532Q328 532 346 513T365
470Q365 446 347 428T304 410Z" />
<glyph unicode="&#xf8;" horiz-adv-x="525" d="M263 -10Q185 -10 134 21T58 108T33 241Q33 313 60 368T140 454T264 485Q371 485 431 422T491 248Q491 163 463 106T384 19T263 -10ZM119 44L68 -19L37 5L91 72L119 44ZM267 33Q305 33 330 53T368 118T380 242Q380
295 368 341T330 415T259 444Q205 444 175 395T145 253Q145 191 156 141T193 62T267 33ZM371 358L159 93L146 140L353 399L371 358ZM462 469L420 418L389 443L431 494L462 469Z" />
<glyph unicode="&#xf9;" horiz-adv-x="589" d="M225 -10Q159 -10 124 30T88 171V371Q88 399 83 412T62 428T20 432V464L161 478H190V189Q190 139 201 113T231 76T274 65Q310 65 335 80T390 120V373Q390 400 383 412T359 428T308 432V464L463 478H492V119Q492 74
505 62T555 50H564V20L422 -5H395V75H390Q362 46 337 27T284 -1T225 -10ZM343 521H301L175 655V677H273L343 521Z" />
<glyph unicode="&#xfa;" horiz-adv-x="589" d="M225 -10Q159 -10 124 30T88 171V371Q88 399 83 412T62 428T20 432V464L161 478H190V189Q190 139 201 113T231 76T274 65Q310 65 335 80T390 120V373Q390 400 383 412T359 428T308 432V464L463 478H492V119Q492 74
505 62T555 50H564V20L422 -5H395V75H390Q362 46 337 27T284 -1T225 -10ZM274 521H232L302 677H401V655L274 521Z" />
<glyph unicode="&#xfb;" horiz-adv-x="589" d="M225 -10Q159 -10 124 30T88 171V371Q88 399 83 412T62 428T20 432V464L161 478H190V189Q190 139 201 113T231 76T274 65Q310 65 335 80T390 120V373Q390 400 383 412T359 428T308 432V464L463 478H492V119Q492 74
505 62T555 50H564V20L422 -5H395V75H390Q362 46 337 27T284 -1T225 -10ZM188 521H143L250 677H325L432 521H388L288 617L188 521Z" />
<glyph unicode="&#xfc;" horiz-adv-x="589" d="M225 -10Q159 -10 124 30T88 171V371Q88 399 83 412T62 428T20 432V464L161 478H190V189Q190 139 201 113T231 76T274 65Q310 65 335 80T390 120V373Q390 400 383 412T359 428T308 432V464L463 478H492V119Q492 74
505 62T555 50H564V20L422 -5H395V75H390Q362 46 337 27T284 -1T225 -10ZM397 555Q369 555 352 573T335 617Q335 643 352 661T397 679Q426 679 443 661T460 617Q460 591 443 573T397 555ZM177 555Q149 555 132 573T115 617Q115 643 131 661T177 679Q206 679 223
661T240 617Q240 591 223 573T177 555Z" />
<glyph unicode="&#xfd;" horiz-adv-x="498" d="M81 -235Q49 -235 28 -222T6 -179Q6 -155 20 -144T53 -133Q79 -133 99 -144T133 -156Q148 -156 164 -137T195 -91T219 -39T228 -2Q228 13 216 42T191 96L45 405Q38 422 25 431T-15 441V473H217V440Q184 440 172 434T160
414Q160 404 165 393T175 370L270 162L285 113H292L387 393Q389 398 390 405T391 416Q391 431 376 436T337 441V473H512V441Q482 441 468 428T443 386L280 -20Q250 -95 221 -142T158 -212T81 -235ZM256 521H214L284 677H383V655L256 521Z" />
<glyph unicode="&#xfe;" horiz-adv-x="539" d="M277 -220H4V-189Q51 -189 64 -174T77 -116V591Q77 620 70 631T38 643Q28 643 17 642T5 641V673L144 706H180V399H184Q220 441 256 463T339 485Q388 485 425 458T483 381T504 261Q504 176 474 116T395 23T284 -10Q256
-10 231 -4T183 17H180V-110Q180 -142 188 -159T217 -182T277 -188V-220ZM280 34Q328 34 360 81T393 233Q393 324 366 366T288 409Q252 409 224 390T180 352V95Q189 85 202 71T235 45T280 34Z" />
<glyph unicode="&#xff;" horiz-adv-x="498" d="M81 -235Q49 -235 28 -222T6 -179Q6 -155 20 -144T53 -133Q79 -133 99 -144T133 -156Q148 -156 164 -137T195 -91T219 -39T228 -2Q228 13 216 42T191 96L45 405Q38 422 25 431T-15 441V473H217V440Q184 440 172 434T160
414Q160 404 165 393T175 370L270 162L285 113H292L387 393Q389 398 390 405T391 416Q391 431 376 436T337 441V473H512V441Q482 441 468 428T443 386L280 -20Q250 -95 221 -142T158 -212T81 -235ZM379 555Q351 555 334 573T317 617Q317 643 334 661T379 679Q408
679 425 661T442 617Q442 591 425 573T379 555ZM159 555Q131 555 114 573T97 617Q97 643 113 661T159 679Q188 679 205 661T222 617Q222 591 205 573T159 555Z" />
<glyph unicode="&#x2013;" horiz-adv-x="500" d="M472 219H28V283H472V219Z" />
<glyph unicode="&#x2014;" horiz-adv-x="1000" d="M972 219H28V283H972V219Z" />
<glyph unicode="&#x2018;" horiz-adv-x="247" d="M134 464Q99 464 77 486T55 553Q55 593 69 620T105 666T147 696T184 713L197 687Q179 679 160 667T129 633T116 574Q123 578 129 578T143 579Q171 579 185 563T200 524Q200 500 183 482T134 464Z" />
<glyph unicode="&#x2019;" horiz-adv-x="247" d="M63 459L50 485Q69 494 88 506T119 540T131 598Q123 595 117 594T103 593Q76 593 62 609T47 648Q47 672 64 690T112 709Q148 709 169 687T190 621Q190 580 177 552T143 506T101 477T63 459Z" />
<glyph unicode="&#x201a;" horiz-adv-x="245" d="M63 -129L50 -103Q69 -94 88 -82T119 -48T131 9Q123 6 117 5T103 4Q76 4 62 20T47 59Q47 84 64 102T112 121Q148 121 169 99T190 32Q190 -8 177 -36T143 -82T101 -111T63 -129Z" />
<glyph unicode="&#x201c;" horiz-adv-x="441" d="M134 464Q99 464 77 486T55 553Q55 593 69 620T105 666T147 696T184 713L197 687Q179 679 160 667T129 633T116 574Q123 578 129 578T143 579Q171 579 185 563T200 524Q200 500 183 482T134 464ZM329 464Q294 464
272 486T250 553Q250 593 264 620T300 666T342 696T379 713L392 687Q374 679 355 667T324 633T311 574Q318 578 324 578T338 579Q366 579 380 563T395 524Q395 500 378 482T329 464Z" />
<glyph unicode="&#x201d;" horiz-adv-x="441" d="M63 459L50 485Q69 494 88 506T119 540T131 598Q123 595 117 594T103 593Q76 593 62 609T47 648Q47 672 64 690T112 709Q148 709 169 687T190 621Q190 580 177 552T143 506T101 477T63 459ZM258 459L245 485Q264
494 283 506T314 540T326 598Q318 595 312 594T298 593Q271 593 257 609T242 648Q242 672 259 690T307 709Q343 709 364 687T385 621Q385 580 372 552T338 506T296 477T258 459Z" />
<glyph unicode="&#x201e;" horiz-adv-x="440" d="M63 -129L50 -103Q69 -94 88 -82T119 -48T131 9Q123 6 117 5T103 4Q76 4 62 20T47 59Q47 84 64 102T112 121Q148 121 169 99T190 32Q190 -8 177 -36T143 -82T101 -111T63 -129ZM258 -129L245 -103Q264 -94 283
-82T314 -48T326 9Q318 6 312 5T298 4Q271 4 257 20T242 59Q242 84 259 102T307 121Q343 121 364 99T385 32Q385 -8 372 -36T338 -82T296 -111T258 -129Z" />
<glyph unicode="&#x2022;" horiz-adv-x="457" d="M228 131Q172 131 141 168T109 258Q109 316 140 349T228 383Q284 383 316 350T348 258Q348 200 316 166T228 131Z" />
<glyph unicode="&#x2039;" horiz-adv-x="321" d="M268 61L242 38Q209 70 174 102T102 166T31 228V251Q68 283 104 315T175 380T241 442L266 419L130 245V239L268 61Z" />
<glyph unicode="&#x203a;" horiz-adv-x="321" d="M78 38L54 61L191 239V245L55 419L80 442Q112 412 146 380T217 316T290 251V228Q255 198 219 167T147 103T78 38Z" />
</font>
</defs>
</svg>
